<?xml version="1.0" encoding="UTF-8"?> <svg xmlns="http://www.w3.org/2000/svg" data-v-fde0c5aa="" viewBox="0 0 300 300" class="iconAbove"><!----><defs data-v-fde0c5aa=""><!----></defs><rect data-v-fde0c5aa="" fill="transparent" x="0" y="0" width="300px" height="300px" class="logo-background-square"></rect><defs data-v-fde0c5aa=""><!----></defs><g data-v-fde0c5aa="" id="75237af2-ce03-486e-b068-fd629949736c" fill="#000000" transform="matrix(5.433646553048486,0,0,5.433646553048486,16.03343791263602,170.1118050245739)"><path d="M5.46 3.72C2.80 3.72 0.73 5.56 0.73 8.81C0.73 11.97 2.69 13.78 5.33 13.78C7.78 13.78 9.45 12.50 9.67 10.32L9.69 10.18L7.49 10.18L7.46 10.32C7.24 11.47 6.55 12.15 5.42 12.15C4.10 12.15 3.04 11.10 3.04 8.68C3.04 6.54 4.03 5.35 5.43 5.35C6.59 5.35 7.28 5.95 7.50 7.07L7.53 7.21L9.73 7.21L9.72 7.07C9.52 5.17 8.13 3.72 5.46 3.72ZM12.07 3.23C11.37 3.23 10.91 3.67 10.91 4.34C10.91 5.03 11.37 5.46 12.07 5.46C12.77 5.46 13.24 5.03 13.24 4.34C13.24 3.67 12.77 3.23 12.07 3.23ZM13.17 13.58L13.17 6.12L10.98 6.12L10.98 13.58ZM17.47 7.57L19.05 7.57L19.05 6.17L17.47 6.17L17.47 4.30L15.27 4.30L15.27 6.17L14.14 6.17L14.14 7.57L15.27 7.57L15.27 11.00C15.27 11.42 15.27 11.76 15.30 12.14C15.39 13.23 15.92 13.76 17.56 13.76C18.03 13.76 18.47 13.72 18.91 13.65L18.91 12.25C17.79 12.32 17.54 12.15 17.49 11.41C17.47 11.21 17.47 10.96 17.47 10.71ZM24.49 13.58L26.63 13.58C26.52 12.75 26.49 12.25 26.49 11.69L26.49 9.42C26.49 8.99 26.47 8.57 26.45 8.22C26.33 6.89 25.54 5.92 23.32 5.92C21.50 5.92 20.06 6.89 20.02 8.60L22.12 8.60C22.18 7.85 22.55 7.43 23.24 7.43C23.90 7.43 24.23 7.80 24.28 8.25C24.30 8.50 24.30 8.69 24.30 8.89L24.30 9.02L23.83 9.02C21.20 9.02 19.75 9.97 19.75 11.59C19.75 13.01 20.89 13.78 22.15 13.78C22.83 13.78 23.46 13.62 24.00 13.29L24.33 12.49ZM23.02 12.26C22.41 12.26 22.01 11.97 22.01 11.41C22.01 10.54 22.95 10.21 24.30 10.32L24.30 10.86C24.30 11.79 23.67 12.26 23.02 12.26ZM35.67 3.29L33.47 3.29L33.47 7.10L32.98 6.31C32.61 6.08 31.86 5.92 31.25 5.92C29.33 5.92 27.69 7.32 27.69 10.00C27.69 12.21 28.94 13.78 31.00 13.78C31.75 13.78 32.49 13.61 32.91 13.29L33.47 12.46L33.47 13.58L35.67 13.58ZM31.70 12.26C30.66 12.26 29.95 11.34 29.95 9.87C29.95 8.25 30.70 7.43 31.77 7.43C32.59 7.43 33.47 7.99 33.47 9.59L33.47 9.94C33.47 11.65 32.69 12.26 31.70 12.26ZM44.35 9.72C44.35 7.73 43.12 5.92 40.74 5.92C38.37 5.92 36.88 7.63 36.88 9.87C36.88 12.50 38.51 13.78 40.60 13.78C42.42 13.78 43.82 12.87 44.23 11.14L42.06 11.14C41.93 11.84 41.41 12.26 40.64 12.26C39.82 12.26 39.20 11.84 39.07 10.42L44.31 10.42C44.34 10.15 44.35 9.91 44.35 9.72ZM40.64 7.43C41.45 7.43 41.94 7.98 42.07 9.03L39.13 9.03C39.31 7.92 39.86 7.43 40.64 7.43ZM47.71 3.29L45.51 3.29L45.51 11.07C45.51 11.59 45.51 11.96 45.54 12.32C45.60 13.30 46.21 13.71 47.26 13.71C47.75 13.71 48.16 13.68 48.58 13.64L48.58 12.14C47.92 12.17 47.77 12.05 47.73 11.72C47.71 11.52 47.71 11.35 47.71 11.03Z"></path></g><defs data-v-fde0c5aa=""><linearGradient data-v-fde0c5aa="" gradientTransform="rotate(25)" id="6bf4fe1a-77d4-406f-821f-5a423b2abdc8" x1="0%" y1="0%" x2="100%" y2="0%"><stop data-v-fde0c5aa="" offset="0%" stop-color="#22526E" stop-opacity="1"></stop><stop data-v-fde0c5aa="" offset="100%" stop-color="#BDB496" stop-opacity="1"></stop></linearGradient></defs><g data-v-fde0c5aa="" id="ae643693-689c-4f64-9ff4-53f2795e6b07" stroke="none" fill="url(#6bf4fe1a-77d4-406f-821f-5a423b2abdc8)" transform="matrix(1.6860284408564175,0,0,1.6860284408564175,106.16326053773315,55.01254951632271)"><path d="M24 14.982V1a1 1 0 0 1 1-1h2a1 1 0 0 1 1 1v1h7.998A.996.996 0 0 1 37 3.003v4.994C37 8.551 36.544 9 35.998 9H28v5.982L47.275 29H4.725L24 14.982zM50 44v20h1a1 1 0 0 1 1 1v2a1 1 0 0 1-1 1H1a1 1 0 0 1-1-1v-2a1 1 0 0 1 1-1h1V44a2 2 0 0 1-2-2v-8a2 2 0 0 1 2-2h48a2 2 0 0 1 2 2v8a2 2 0 0 1-2 2zm-4 0h-7v20h7V44zm-11 0h-7v20h7V44zm-22 0H6v20h7V44zm11 0h-7v20h7V44z"></path></g><!----></svg> 